<svg viewBox="0 0 72 72" fill="none" xmlns="http://www.w3.org/2000/svg">
<path fill-rule="evenodd" clip-rule="evenodd" d="M36 65.0333C52.0347 65.0333 65.0333 52.0347 65.0333 36C65.0333 29.0971 62.6243 22.7569 58.6011 17.7741L54.9833 21.392V24.8124H51.5629L51.102 25.2733L49.7731 50.6798L49.773 50.683C49.7026 52.095 49.1277 53.4528 48.1262 54.4672C47.1199 55.4864 45.7552 56.0807 44.3063 56.079L27.6965 56.079C26.2476 56.0807 24.8813 55.4864 23.875 54.4672C23.5425 54.1304 23.257 53.7558 23.0214 53.3538L17.7741 58.6011C22.7569 62.6243 29.0971 65.0333 36 65.0333ZM55.2986 14.3086L49.2615 20.3457H44.6313V19.3789C44.6313 17.9381 44.059 16.5563 43.0402 15.5375C42.0214 14.5186 40.6396 13.9463 39.1988 13.9463H32.8003C31.3594 13.9463 29.9776 14.5186 28.9588 15.5375C27.94 16.5563 27.3677 17.9381 27.3677 19.3789V20.3457H20.6382H17.0166V24.8124H20.8723L22.0637 47.5435L14.3086 55.2986C9.74153 50.1689 6.96667 43.4085 6.96667 36C6.96667 19.9653 19.9653 6.96667 36 6.96667C43.4085 6.96667 50.1689 9.74153 55.2986 14.3086ZM26.3145 43.2927L25.3479 24.8124H44.7948L41.379 28.2282L38.7376 28.0897L38.5838 31.0234L33.6723 35.9349L33.2612 28.0902L29.6928 28.2772L30.2723 39.3349L26.3145 43.2927ZM30.6093 45.7659L26.6509 49.7243L26.6894 50.4598C26.707 50.8171 26.8519 51.1248 27.0535 51.329C27.2506 51.5286 27.4811 51.6127 27.6899 51.6124L27.6932 51.6124L44.3113 51.6124C44.5202 51.6127 44.7506 51.5286 44.9478 51.329C45.1493 51.1248 45.2943 50.8171 45.3119 50.4598L45.3122 50.4531L46.3823 29.9929L41.9857 34.3896L41.2541 48.3492L37.6856 48.1622L38.2095 38.1657L34.0094 42.3659L34.3132 48.1627L30.7447 48.3497L30.6093 45.7659ZM36 69.5C54.5015 69.5 69.5 54.5015 69.5 36C69.5 17.4985 54.5015 2.5 36 2.5C17.4985 2.5 2.5 17.4985 2.5 36C2.5 54.5015 17.4985 69.5 36 69.5ZM32.1173 18.6959C32.2984 18.5147 32.5441 18.413 32.8003 18.413H39.1988C39.4549 18.413 39.7006 18.5147 39.8818 18.6959C40.0629 18.877 40.1647 19.1227 40.1647 19.3789V20.3448H31.8343V19.3789C31.8343 19.1227 31.9361 18.877 32.1173 18.6959Z" fill="black"/>
</svg>
