<?xml version="1.0" encoding="UTF-8"?><svg id="a" xmlns="http://www.w3.org/2000/svg" viewBox="0 0 130 100"><defs><style>.b,.c,.d,.e,.f,.g{stroke:#005aa3;stroke-linejoin:round;}.b,.c,.d,.e,.g{stroke-linecap:round;}.b,.d,.g{fill:#fff;}.b,.e,.f{stroke-width:2.1px;}.c,.d{stroke-width:1.8px;}.c,.e,.f{fill:none;}.h{fill:#005aa3;}.g{stroke-width:2px;}</style></defs><path class="h" d="M70.1,44.2c-2.4-13.5-10.4-23.4-19.2-23.6h0c-.8,0-9.8.6-10.3.7,0,0,0,0-.1,0,0,0-1.1.2-1.7.4-9.7,3-15.3,18.2-12.6,33.8,2.4,13.8,10.5,23.6,19.3,23.6.2,0,.4,0,.5,0,0,0,0,0,0,0h.2c3.1-.3,10.5-.9,11.2-1.1,9.7-3,15.3-18.1,12.6-33.8ZM45,28.3c.3-.4.7-.6,1.2-.6s.6,0,.9.3h0c.6.5.8,1.4.3,2.1-.5.6-1.4.8-2,.3,0,0,0,0,0,0-.6-.5-.8-1.4-.3-2ZM56.8,46.1s0,.1,0,.1c.1.8-.4,1.5-1.2,1.7-.8.1-1.5-.4-1.7-1.2v-.2c-.2-.8.3-1.5,1.1-1.7,0,0,.2,0,.3,0,.7,0,1.3.5,1.4,1.2h0ZM57.4,56.5c0,.8-.7,1.4-1.5,1.3-.8,0-1.4-.7-1.3-1.5,0,0,0,0,0-.1,0-.8.7-1.3,1.4-1.3s0,0,.1,0c.8,0,1.4.8,1.3,1.5h0ZM56.6,61.6c-.2.8-.9,1.3-1.7,1.1-.8-.2-1.3-.9-1.1-1.7,0,0,0-.1,0-.1.2-.7.7-1.1,1.4-1.1s.2,0,.3,0c.8.2,1.3.9,1.1,1.7h0ZM55,66.6c-.3.7-1.2,1.1-1.9.7-.7-.3-1.1-1.2-.7-1.9,0,0,0,0,0,0,.2-.5.8-.9,1.3-.9s.4,0,.6.1c.7.3,1.1,1.2.7,1.9h0ZM52,47.5h0c.2,1-.4,1.7-1.2,1.9-.8.2-1.6-.4-1.7-1.2,0,0,0-.2,0-.2-.1-.8.4-1.6,1.2-1.7,0,0,.2,0,.3,0,.7,0,1.3.5,1.5,1.2h0ZM49.1,58h0c.1-.8.8-1.3,1.5-1.3s.2,0,.3,0c.8.2,1.3,1,1.2,1.8h0c-.2.9-1,1.4-1.8,1.3-.8-.2-1.3-1-1.2-1.8ZM51.1,54.6c-.8,0-1.5-.6-1.5-1.5h0c0-1,.7-1.6,1.5-1.6s1.5.7,1.5,1.5h0c0,.9-.7,1.6-1.5,1.6ZM56,52.9c-.8,0-1.5-.6-1.5-1.4,0-.8.6-1.5,1.3-1.6,0,0,0,0,0,0,.8,0,1.4.5,1.4,1.3,0,0,0,0,0,.1,0,.8-.6,1.5-1.4,1.5ZM54.6,42.9c-.8.2-1.6-.1-1.8-.9,0,0,0-.1,0-.1-.2-.8.2-1.6.9-1.8.1,0,.3,0,.4,0,.6,0,1.2.4,1.4,1,0,0,0,0,0,0,.2.8-.2,1.6-.9,1.8ZM52.9,38.2c-.7.4-1.6,0-1.9-.6-.4-.7,0-1.6.6-2,.2-.1.4-.2.7-.2.5,0,1,.3,1.2.8h0c.4.8,0,1.7-.6,2ZM50.5,33.9c-.6.5-1.5.3-2-.3-.5-.6-.4-1.6.3-2,.3-.2.6-.3.9-.3s.8.2,1.1.5c0,0,0,.1,0,.1.5.6.3,1.5-.3,2ZM48.5,41.4c.2,0,.4-.1.6-.1.6,0,1.2.4,1.4.9,0,0,0,0,0,0,.3.8,0,1.7-.8,2-.8.3-1.6,0-1.9-.8h0c-.3-.9,0-1.7.8-2ZM47.5,39.5c-.7.5-1.6.3-2.1-.3-.5-.7-.4-1.6.3-2.1.3-.2.6-.3.9-.3s.9.2,1.2.6h0c.5.8.3,1.7-.3,2.2ZM43.5,33.5c.7.4,1,1.3.6,2-.4.7-1.3,1-2,.6-.7-.4-1.1-1.3-.7-2,.3-.5.8-.9,1.3-.9s.4,0,.6.1h.1ZM40.2,26.9c.1-.7.7-1.2,1.4-1.2s.2,0,.3,0c0,0,0,0,.1,0,.8.1,1.3.9,1.2,1.7-.1.8-.9,1.3-1.7,1.2-.8-.1-1.3-.9-1.2-1.7ZM45.4,49.5c.7,4.8-.6,9.2-2.9,9.8-2.3.6-4.8-2.9-5.5-7.7-.7-4.8.6-9.2,2.9-9.8,2.3-.6,4.8,2.9,5.5,7.7ZM39.1,33.9c.3.8,0,1.6-.8,2-.8.4-1.7,0-2-.7-.4-.8,0-1.6.7-2h.1c.2-.1.4-.2.6-.2.6,0,1.1.3,1.4.9ZM36.1,26.5s.1,0,.2,0c.2,0,.4-.1.5-.1.6,0,1.1.3,1.3.9.3.7,0,1.6-.8,1.9-.7.3-1.6,0-1.9-.8s0-1.5.7-1.9ZM35.4,38.9c-.4.7-1.3,1-2.1.6-.7-.4-1-1.3-.6-2h0c.3-.6.8-.9,1.3-.9s.5,0,.8.2c.7.4,1,1.3.5,2ZM30.8,53.8s0-.1,0-.1c-.1-.8.4-1.6,1.2-1.7,0,0,.2,0,.2,0,.7,0,1.4.5,1.5,1.3.1.8-.4,1.6-1.2,1.8-.8.1-1.6-.3-1.7-1.2h0ZM31.8,46.7h0c.8,0,1.5.6,1.5,1.5h0c0,.9-.7,1.6-1.5,1.6-.8,0-1.5-.6-1.5-1.5,0,0,0,0,0,0,0-.8.7-1.5,1.5-1.5ZM30.8,42.8h0c.1-.8.8-1.3,1.5-1.3s.2,0,.3,0c.8.2,1.3,1,1.2,1.8h0c-.2.9-1,1.4-1.8,1.3-.8-.2-1.3-1-1.2-1.8ZM33.2,57.1c.2,0,.4-.1.6-.1.6,0,1.1.3,1.4.9h0c.3.9,0,1.7-.8,2-.8.3-1.6,0-2-.8,0,0,0,0,0,0-.3-.8,0-1.7.8-2ZM31.8,29.9s0,0,0,0c.3-.3.7-.5,1.1-.5s.7.1.9.3c.6.5.7,1.4.2,2-.5.6-1.4.7-2.1.2-.6-.5-.7-1.4-.2-2ZM29,34.5h0c.2-.6.8-1,1.3-1s.4,0,.6.1c.7.3,1.1,1.2.7,1.9,0,0,0,0,0,0-.3.7-1.2,1.1-1.9.7-.7-.3-1.1-1.2-.7-1.9ZM27.4,39.5h0c.1-.8.7-1.2,1.4-1.2s.2,0,.3,0c.8.2,1.3.9,1.1,1.7,0,0,0,.1,0,.1-.2.8-1,1.3-1.7,1.1-.8-.2-1.3-.9-1.1-1.7ZM26.6,44.6c0-.8.7-1.4,1.4-1.4,0,0,0,0,0,0,.8,0,1.4.7,1.4,1.5,0,0,0,.1,0,.1,0,.8-.8,1.4-1.5,1.3-.8,0-1.4-.8-1.3-1.5h0ZM28,48.2s0,0,0,0c.8,0,1.4.6,1.4,1.4,0,.8-.6,1.5-1.3,1.6-.8,0-1.5-.5-1.5-1.3,0,0,0,0,0-.1,0-.8.6-1.5,1.4-1.5ZM26.7,55.6c-.4-.8,0-1.6.7-2h.1c.2-.1.4-.2.6-.2.6,0,1.1.3,1.4.9.3.8,0,1.6-.8,2-.8.4-1.7,0-2-.7ZM28.5,59.9h0c-.3-.8.1-1.6.9-1.9.2,0,.3,0,.5,0,.6,0,1.2.4,1.4,1,0,0,0,.1,0,.1.2.8-.2,1.6-.9,1.8-.8.2-1.6-.2-1.8-.9ZM32.3,65.4c-.7.4-1.6.1-1.9-.6h0c-.4-.8,0-1.7.6-2,.2-.1.4-.2.6-.2.5,0,1,.3,1.3.8.4.7,0,1.6-.6,2ZM35.2,69.5c-.6.5-1.5.4-2-.2,0,0,0-.1,0-.1-.5-.6-.3-1.5.3-2,.3-.2.6-.3.9-.3.4,0,.9.2,1.2.6.5.6.4,1.6-.3,2ZM35,64h0c-.5-.8-.3-1.7.3-2.2.3-.2.6-.3.9-.3.5,0,.9.2,1.2.6.5.7.4,1.6-.3,2.1-.7.5-1.6.4-2.1-.3ZM39,72.7c-.5.6-1.4.8-2,.3h0c-.6-.5-.8-1.4-.3-2.1.3-.4.7-.6,1.2-.6s.6,0,.8.3c0,0,0,0,0,0,.6.5.8,1.4.3,2ZM39.4,67.9h0c-.7-.4-1-1.3-.7-2.1.3-.5.8-.8,1.3-.8s.5,0,.7.2h.1c.7.4,1,1.3.6,2.1-.4.7-1.3,1-2,.6ZM43.7,74.1c-.1.8-.8,1.3-1.6,1.2,0,0,0,0-.1,0-.8-.1-1.3-.9-1.2-1.7.1-.7.7-1.2,1.4-1.2s.2,0,.3,0c.8.1,1.3.9,1.2,1.7ZM43.7,67.4c-.3-.8,0-1.6.8-2,.2,0,.4-.1.6-.1.6,0,1.2.3,1.4.9.3.8,0,1.6-.7,2h-.1c-.8.4-1.6,0-2-.7ZM47.8,74.6s-.1,0-.1,0c-.7.3-1.6,0-1.9-.8-.3-.7,0-1.6.8-1.9.2,0,.4-.1.6-.1.6,0,1.1.3,1.3.8.3.7,0,1.5-.7,1.9ZM48,64.5c-.7-.4-1-1.3-.6-2,.3-.5.8-.8,1.4-.8s.5,0,.7.2c.7.4,1,1.3.6,2,0,0,0,0,0,0-.4.7-1.3,1-2.1.6ZM52.1,71.2c-.5.6-1.4.7-2,.2-.6-.5-.7-1.4-.2-2,.3-.3.7-.5,1.2-.5s.6.1.9.3c.6.5.7,1.4.2,2,0,0,0,0,0,0ZM59.8,66.8c-1.5,3.9-3.6,7-6.2,9.1-.2.1-.4.2-.6.2s-.5-.1-.7-.3c-.3-.4-.3-.9.1-1.2,2.3-1.9,4.3-4.8,5.7-8.4.2-.4.7-.7,1.1-.5.4.2.7.7.5,1.1ZM61.5,61.1c0,.4-.4.7-.9.7s-.1,0-.2,0c-.5,0-.8-.6-.7-1,1-5,1-10.4,0-15.7-1.7-9.9-6.6-17.9-12.7-20.9-.4-.2-.6-.7-.4-1.2.2-.4.7-.6,1.2-.4,6.6,3.2,11.8,11.7,13.6,22.2,1,5.5.9,11.2-.1,16.3Z"/><path class="f" d="M63.4,29.6l10.3,4.8s5.6,5.1,5.6,13.9-5.6,16.6-5.6,16.6l-6.9,2.3"/><path class="e" d="M77.6,40.3h11s3-.5,4.4,3"/><rect class="e" x="81.8" y="62.5" width="18.2" height="8.1"/><line class="b" x1="94.5" y1="63.2" x2="94.5" y2="70.6"/><polyline class="e" points="77.6 59.5 85.3 59.5 85.3 61.8"/><line class="b" x1="84.1" y1="73.7" x2="97.8" y2="72.8"/><line class="b" x1="84.1" y1="76.7" x2="97.8" y2="75.9"/><line class="b" x1="84.1" y1="79.7" x2="97.8" y2="78.9"/><line class="b" x1="84.1" y1="82.8" x2="97.8" y2="81.9"/><line class="g" x1="97.1" y1="70.6" x2="97.1" y2="84.5"/><path class="c" d="M70.1,67.2v9.5h15.5"/><line class="d" x1="85.8" y1="73.2" x2="70.1" y2="73.2"/><path class="e" d="M97.8,62.5v-14.9c0-1.8-1.5-3.3-3.3-3.3s-3.3,1.5-3.3,3.3v14.9h6.6Z"/><path class="e" d="M94.4,44.3h-7c-2.5,1-2.2,5.2-2.2,5.2v35.1"/></svg>