{
  "asset": { "version": "2.0", "generator": "ME hair asset adapter" },
  "scene": 0,
  "scenes": [{ "nodes": [0] }],
  "nodes": [{ "mesh": 0, "translation": [0, 34, 8], "scale": [178, 228, 1] }],
  "meshes": [{ "primitives": [{ "attributes": { "POSITION": 0, "TEXCOORD_0": 1 }, "indices": 2, "material": 0 }] }],
  "materials": [{ "pbrMetallicRoughness": { "baseColorTexture": { "index": 0 }, "metallicFactor": 0, "roughnessFactor": 0.8 }, "alphaMode": "BLEND", "doubleSided": true }],
  "textures": [{ "source": 0 }],
  "images": [{ "uri": "../assets/hair/korean-08-hair-front-v1.png" }],
  "buffers": [{ "uri": "data:application/octet-stream;base64,", "byteLength": 92 }],
  "bufferViews": [
    { "buffer": 0, "byteOffset": 0, "byteLength": 48, "target": 34962 },
    { "buffer": 0, "byteOffset": 48, "byteLength": 32, "target": 34962 },
    { "buffer": 0, "byteOffset": 80, "byteLength": 12, "target": 34963 }
  ],
  "accessors": [
    { "bufferView": 0, "componentType": 5126, "count": 4, "type": "VEC3", "min": [-0.5, -0.5, 0], "max": [0.5, 0.5, 0] },
    { "bufferView": 1, "componentType": 5126, "count": 4, "type": "VEC2", "min": [0, 0], "max": [1, 1] },
    { "bufferView": 2, "componentType": 5123, "count": 6, "type": "SCALAR", "min": [0], "max": [3] }
  ]
}
